HIERARCHY
ROOT Hips
{
	OFFSET 0.00000 0.00000 0.00000
	CHANNELS 6 Xposition Yposition Zposition Zrotation Yrotation Xrotation 
	JOINT LHipJoint
	{
		OFFSET 0 0 0
		CHANNELS 3 Zrotation Yrotation Xrotation
		JOINT LeftHip
		{
			OFFSET 1.88772 -1.62769 0.85636
			CHANNELS 3 Zrotation Yrotation Xrotation
			JOINT LeftKnee
			{
				OFFSET 2.39836 -6.58946 0.00000
				CHANNELS 3 Zrotation Yrotation Xrotation
				JOINT LeftAnkle
				{
					OFFSET 2.78523 -7.65237 0.00000
					CHANNELS 3 Zrotation Yrotation Xrotation
					JOINT LeftToe
					{
						OFFSET 0.19551 -0.53715 1.90694
						CHANNELS 3 Zrotation Yrotation Xrotation
						End Site
						{
							OFFSET 0.00000 -0.00000 0.99735
						}
					}
				}
			}
		}
	}
	JOINT RHipJoint
	{
		OFFSET 0 0 0
		CHANNELS 3 Zrotation Yrotation Xrotation
		JOINT RightHip
		{
			OFFSET -1.74282 -1.62769 0.85636
			CHANNELS 3 Zrotation Yrotation Xrotation
			JOINT RightKnee
			{
				OFFSET -2.36062 -6.48575 0.00000
				CHANNELS 3 Zrotation Yrotation Xrotation
				JOINT RightAnkle
				{
					OFFSET -2.76258 -7.59014 0.00000
					CHANNELS 3 Zrotation Yrotation Xrotation
					JOINT RightToe
					{
						OFFSET -0.19308 -0.53048 2.03952
						CHANNELS 3 Zrotation Yrotation Xrotation
						End Site
						{
							OFFSET -0.00000 -0.00000 1.06031
						}
					}
				}
			}
		}
	}
	JOINT lowerback
	{
		OFFSET 0 0 0
		CHANNELS 3 Zrotation Yrotation Xrotation
		JOINT Chest
		{
			OFFSET -0.08299 2.03160 -0.30721
			CHANNELS 3 Zrotation Yrotation Xrotation
			JOINT Chest2
			{
				OFFSET -0.01030 2.00603 0.13891
				CHANNELS 3 Zrotation Yrotation Xrotation
				JOINT lowerneck
				{
					OFFSET 0 0 0
					CHANNELS 3 Zrotation Yrotation Xrotation
					JOINT Neck
					{
						OFFSET 0.04282 1.69578 0.19991
						CHANNELS 3 Zrotation Yrotation Xrotation
						JOINT Head
						{
							OFFSET -0.08665 1.66622 -0.03785
							CHANNELS 3 Zrotation Yrotation Xrotation
							End Site
							{
								OFFSET -0.03699 1.83329 -0.04094
							}
						}
					}
				}
				JOINT LeftCollar
				{
					OFFSET 0 0 0
					CHANNELS 3 Zrotation Yrotation Xrotation
					JOINT LeftShoulder
					{
						OFFSET 3.04219 1.50803 -0.05347
CHANNELS 3 Zrotation Xrotation Yrotation
						JOINT LeftElbow
						{
OFFSET 0 -5.791990 0.000000
CHANNELS 3 Zrotation Xrotation Yrotation
							JOINT LeftWrist
							{
OFFSET 0 -3.499080 0.000000
CHANNELS 3 Zrotation Xrotation Yrotation
								JOINT lhand
								{
									OFFSET 0 0 0
CHANNELS 3 Zrotation Xrotation Yrotation
									JOINT LFingers
									{
OFFSET 0 -0.593860 0.000000
CHANNELS 3 Zrotation Xrotation Yrotation
										End Site
										{
OFFSET 0 -0.478790 0.000000
										}
									}
								}
								JOINT LThumb
								{
OFFSET 0 0.000000 0.000000
CHANNELS 3 Zrotation Xrotation Yrotation
									End Site
									{
OFFSET 0 -0.486100 0.486100
									}
								}
							}
						}
					}
				}
				JOINT RightCollar
				{
					OFFSET 0 0 0
					CHANNELS 3 Zrotation Yrotation Xrotation
					JOINT RightShoulder
					{
						OFFSET -3.30316 1.18853 0.11175
CHANNELS 3 Zrotation Xrotation Yrotation
						JOINT RightElbow
						{
OFFSET 0 -5.737990 0.000000
CHANNELS 3 Zrotation Xrotation Yrotation
							JOINT RightWrist
							{
OFFSET 0 -3.579160 -0.000000
CHANNELS 3 Zrotation Xrotation Yrotation
								JOINT rhand
								{
									OFFSET 0 0 0
CHANNELS 3 Zrotation Xrotation Yrotation
									JOINT RFingers
									{
OFFSET 0 -0.615580 0.000000
CHANNELS 3 Zrotation Xrotation Yrotation
										End Site
										{
OFFSET 0 -0.496290 0.000000
										}
									}
								}
								JOINT RThumb
								{
OFFSET 0 0.000000 0.000000
CHANNELS 3 Zrotation Xrotation Yrotation
									End Site
									{
OFFSET 0 -0.503870 0.503870
									}
								}
							}
						}
					}
				}
			}
		}
	}
}
MOTION
Frames: 6
Frame Time: 0.008333333333333333
-0.697017 16.907332 -17.013968 -367.573087 -145.246427 8.865185 0.000000 0.000000 0.000000 -27.466986 -9.236371 -14.706644 3.389805 11.300690 33.300988 1.096903 0.500482 -19.985165 0.118984 -2.220481 -6.115390 0.000000 0.000000 0.000000 12.476089 7.919596 -31.309363 -14.181366 -19.167745 72.757335 -0.036632 -2.591583 -5.480783 -0.187589 2.789226 -7.692487 -7.168668 -0.662105 6.572078 -1.988978 -2.062392 -5.565119 2.207078 -0.687346 -9.492641 4.797045 5.712050 -1.382767 -5.518046 7.550978 -0.296730 -2.469350 3.744545 0.563607 0.000000 0.000000 0.000000 21.900421 16.715641 -37.643460 49.095596 -52.620679 25.454553 18.067685 -39.205107 21.455261 0.000000 0.000000 0.000000 -7.125000 0.000000 0.000000 -6.727413 7.647443 -5.813618 0.000000 0.000000 0.000000 -17.707033 36.448533 51.643504 -27.354797 -38.515346 -9.719306 -8.563068 -7.165027 29.776892 0.000000 0.000000 0.000000 7.125000 0.000000 0.000000 25.156787 58.214023 -8.479900
-1.886256 16.751096 -18.549861 -371.710482 -141.281890 10.901105 0.000000 0.000000 0.000000 -31.166150 -4.800138 -4.552730 2.365088 9.587862 27.652533 1.376956 -4.764798 -21.132507 0.019276 -0.852484 -2.343256 0.000000 0.000000 0.000000 7.879434 11.867850 -38.795109 -7.583584 -15.797071 51.036424 -0.043807 -3.295575 -6.450718 -0.446989 4.280339 -11.868041 -9.682484 -1.236096 7.732673 -1.720435 -3.133264 -4.875501 4.070003 -1.041070 -9.216389 5.618082 4.629217 -1.340424 -7.719398 6.064670 -0.636948 -3.400104 2.983433 0.478777 0.000000 0.000000 0.000000 24.380161 14.811130 -41.558521 68.518954 -58.180357 41.510740 18.924749 -43.024052 21.956731 0.000000 0.000000 0.000000 -7.125000 0.000000 0.000000 -6.219924 7.009901 -5.447486 0.000000 0.000000 0.000000 -18.095313 36.212772 53.371868 -29.389283 -40.364059 -11.011964 -10.553239 -7.178730 29.595764 0.000000 0.000000 0.000000 7.125000 0.000000 0.000000 23.000223 58.485228 -7.850732
-3.002220 16.696953 -20.303846 -373.429381 -135.220336 12.348434 0.000000 0.000000 0.000000 -29.644697 -1.544403 8.122987 0.940248 6.175551 17.294628 0.965320 -5.632337 -17.537025 0.210685 -2.933153 -8.094123 0.000000 0.000000 0.000000 -2.740342 27.593411 -33.814684 -2.550239 -9.927661 28.743522 1.152800 -18.964508 -10.347627 -2.803731 -9.595163 28.229073 -9.831536 -1.741164 6.215081 -1.254792 -3.490720 -4.121382 4.604392 -1.290772 -7.402188 4.441121 3.058406 -2.007821 -7.119069 4.004202 0.377075 -2.994363 1.937742 0.724235 0.000000 0.000000 0.000000 25.792843 14.169795 -45.568494 78.009271 -59.449560 49.634934 17.685460 -40.309057 22.720600 0.000000 0.000000 0.000000 -7.125000 0.000000 0.000000 -7.052735 6.404657 -6.271253 0.000000 0.000000 0.000000 -16.609098 35.521804 52.628281 -30.468651 -41.291701 -11.717659 -12.077715 -5.436488 30.532086 0.000000 0.000000 0.000000 7.125000 0.000000 0.000000 22.153111 59.685350 -8.186095
-3.993898 16.381588 -22.139401 -373.504070 -128.281908 12.531540 0.000000 0.000000 0.000000 -25.485555 -3.514984 12.137212 1.729399 8.276720 23.558666 0.768258 -7.352405 -15.703594 0.275479 -3.375494 -9.325854 0.000000 0.000000 0.000000 0.731821 21.060466 -33.374286 -3.302366 -11.167659 32.849071 -0.195525 -4.987022 8.074006 -2.398155 9.646628 -27.842746 -8.509491 -2.196432 5.283090 -0.875549 -3.836573 -4.280860 4.260589 -1.525573 -7.015201 3.152549 1.643196 -1.365629 -6.430483 2.133715 0.188113 -2.558256 1.019308 0.405431 0.000000 0.000000 0.000000 24.564133 17.361380 -47.632339 71.025039 -58.594235 43.644862 17.638781 -38.896411 22.600034 0.000000 0.000000 0.000000 -7.125000 0.000000 0.000000 -7.073742 6.534154 -6.272017 0.000000 0.000000 0.000000 -15.872698 35.775730 53.237278 -32.288857 -42.776042 -12.936608 -11.669866 -4.439429 30.578028 0.000000 0.000000 0.000000 7.125000 0.000000 0.000000 22.613581 59.633806 -8.338742
-4.756591 16.268240 -23.760672 -373.467873 -122.512290 12.112952 0.000000 0.000000 0.000000 -21.426117 -1.794226 8.690934 4.153620 12.359417 37.019465 0.438378 1.651587 -13.227109 0.006602 0.347052 0.953836 0.000000 0.000000 0.000000 7.778744 12.173834 -32.349829 -5.150283 -13.550993 41.467859 -0.053161 -1.254204 -5.002929 -0.551800 4.751479 -13.202444 -8.263703 -2.045447 5.854485 -0.461029 -3.606612 -4.128966 4.565691 -1.395790 -7.196044 3.411219 0.286787 -2.267802 -7.522298 0.390904 2.084446 -3.006428 0.093498 1.082716 0.000000 0.000000 0.000000 19.163351 20.200537 -44.857555 51.524035 -53.584996 27.397774 17.517243 -33.078910 22.422065 0.000000 0.000000 0.000000 -7.125000 0.000000 0.000000 -7.138436 6.733027 -6.301931 0.000000 0.000000 0.000000 -18.046418 32.230185 56.447991 -33.111942 -43.415895 -13.498928 -11.025774 -6.017762 30.298362 0.000000 0.000000 0.000000 7.125000 0.000000 0.000000 23.057878 59.231431 -8.289078
-5.200461 16.423319 -24.851089 -371.340187 -115.550831 12.724244 0.000000 0.000000 0.000000 -18.963612 -3.066861 -3.861393 7.008275 15.338831 48.905690 0.547723 0.249074 -14.077569 0.226238 -2.987749 -8.249551 0.000000 0.000000 0.000000 12.733458 9.751596 -30.051045 -5.060168 -13.451214 41.081970 -0.252561 -3.579628 -11.501801 -0.111888 2.115422 -5.826348 -4.584947 -1.813530 6.139486 -0.024395 -2.963047 -4.818385 2.936107 -1.208618 -8.313175 2.353985 -0.171294 -2.427568 -7.709907 -0.216720 1.770492 -2.875937 -0.225168 0.970872 0.000000 0.000000 0.000000 15.821388 20.439840 -43.971745 34.568329 -44.500973 14.510139 11.409290 -25.893734 20.808700 0.000000 0.000000 0.000000 -7.125000 0.000000 0.000000 -10.928810 9.093815 -9.237843 0.000000 0.000000 0.000000 -19.714100 28.610329 52.544704 -33.992036 -44.078349 -14.107713 -12.744841 -5.128404 30.890564 0.000000 0.000000 0.000000 7.125000 0.000000 0.000000 21.741118 60.169999 -8.277630
